<?xml version="1.0" encoding="UTF-8"?>
<svg xmlns="http://www.w3.org/2000/svg" width="996" height="1120" viewBox="0 0 996 1120">
<style>.t{font-family:'Times New Roman',Times,serif;fill:#000}.title{font-size:20px;font-weight:bold}.sub{font-size:12px}.lane{font-size:13px;font-weight:bold}.lab{font-size:12px}.el{font-size:11px}</style>
<defs><marker id="arr" markerWidth="8" markerHeight="8" refX="7" refY="3" orient="auto"><path d="M0,0 L8,3 L0,6 Z" fill="#000"/></marker></defs>
<rect width="996" height="1120" fill="#fff"/>
<text class="t title" x="498.0" y="32" text-anchor="middle">Figure AD-2. Student proposes an event; admin approves or rejects</text>
<text class="t sub" x="498.0" y="54" text-anchor="middle">Faculty and staff create events directly. Students submit Status = Proposed.</text>
<rect x="48" y="72" width="300" height="1032" fill="#fff" stroke="#000" stroke-width="1.4"/>
<rect x="48" y="72" width="300" height="28" fill="#fff" stroke="#000" stroke-width="1.4"/>
<text class="t lane" x="198.0" y="91" text-anchor="middle">Student</text>
<rect x="348" y="72" width="300" height="1032" fill="#fff" stroke="#000" stroke-width="1.4"/>
<rect x="348" y="72" width="300" height="28" fill="#fff" stroke="#000" stroke-width="1.4"/>
<text class="t lane" x="498.0" y="91" text-anchor="middle">System</text>
<rect x="648" y="72" width="300" height="1032" fill="#fff" stroke="#000" stroke-width="1.4"/>
<rect x="648" y="72" width="300" height="28" fill="#fff" stroke="#000" stroke-width="1.4"/>
<text class="t lane" x="798.0" y="91" text-anchor="middle">System Admin</text>
<polyline points="198.0,190.0 198.0,243.0" fill="none" stroke="#000" stroke-width="1.25" marker-end="url(#arr)"/>
<polyline points="198.0,293.0 198.0,326.5 391.0,326.5 391.0,360.0" fill="none" stroke="#000" stroke-width="1.25" marker-end="url(#arr)"/>
<polyline points="498.0,385.0 498.0,427.0" fill="none" stroke="#000" stroke-width="1.25" marker-end="url(#arr)"/>
<polyline points="498.0,477.0 498.0,510.5 691.0,510.5 691.0,544.0" fill="none" stroke="#000" stroke-width="1.25" marker-end="url(#arr)"/>
<polyline points="798.0,569.0 798.0,599.0" fill="none" stroke="#000" stroke-width="1.25" marker-end="url(#arr)"/>
<polyline points="724.0,636.0 724.0,682.0 605.0,682.0 605.0,728.0" fill="none" stroke="#000" stroke-width="1.25" marker-end="url(#arr)"/>
<text class="t el" x="734.0" y="663.0">Yes</text>
<polyline points="724.0,636.0 724.0,669.5 798.0,669.5 798.0,703.0" fill="none" stroke="#000" stroke-width="1.25" marker-end="url(#arr)"/>
<text class="t el" x="734.0" y="656.75">No</text>
<polyline points="498.0,753.0 498.0,795.0" fill="none" stroke="#000" stroke-width="1.25" marker-end="url(#arr)"/>
<polyline points="798.0,753.0 798.0,795.0" fill="none" stroke="#000" stroke-width="1.25" marker-end="url(#arr)"/>
<polyline points="498.0,845.0 498.0,898.0" fill="none" stroke="#000" stroke-width="1.25" marker-end="url(#arr)"/>
<polyline points="798.0,845.0 798.0,898.0" fill="none" stroke="#000" stroke-width="1.25" marker-end="url(#arr)"/>
<circle cx="198.0" cy="176.0" r="12" fill="#000"/>
<rect x="91.0" y="243.0" width="214" height="50" rx="14" ry="14" fill="#fff" stroke="#000" stroke-width="1.4"/>
<text class="t lab" x="198.0" y="261.0" text-anchor="middle">Fill propose-event form</text>
<text class="t lab" x="198.0" y="275.0" text-anchor="middle">(lead must be faculty/staff)</text>
<rect x="391.0" y="335.0" width="214" height="50" rx="14" ry="14" fill="#fff" stroke="#000" stroke-width="1.4"/>
<text class="t lab" x="498.0" y="360.0" text-anchor="middle">Save event as Proposed</text>
<rect x="391.0" y="427.0" width="214" height="50" rx="14" ry="14" fill="#fff" stroke="#000" stroke-width="1.4"/>
<text class="t lab" x="498.0" y="452.0" text-anchor="middle">Notify admin of proposal</text>
<rect x="691.0" y="519.0" width="214" height="50" rx="14" ry="14" fill="#fff" stroke="#000" stroke-width="1.4"/>
<text class="t lab" x="798.0" y="544.0" text-anchor="middle">Review proposal</text>
<polygon points="798.0,599.0 872.0,636.0 798.0,673.0 724.0,636.0" fill="#fff" stroke="#000" stroke-width="1.4"/>
<text class="t lab" x="798.0" y="636.0" text-anchor="middle">Approve?</text>
<rect x="391.0" y="703.0" width="214" height="50" rx="14" ry="14" fill="#fff" stroke="#000" stroke-width="1.4"/>
<text class="t lab" x="498.0" y="721.0" text-anchor="middle">Set status Planned</text>
<text class="t lab" x="498.0" y="735.0" text-anchor="middle">and add event lead</text>
<rect x="691.0" y="703.0" width="214" height="50" rx="14" ry="14" fill="#fff" stroke="#000" stroke-width="1.4"/>
<text class="t lab" x="798.0" y="721.0" text-anchor="middle">Set status Rejected</text>
<text class="t lab" x="798.0" y="735.0" text-anchor="middle">with reason</text>
<rect x="391.0" y="795.0" width="214" height="50" rx="14" ry="14" fill="#fff" stroke="#000" stroke-width="1.4"/>
<text class="t lab" x="498.0" y="820.0" text-anchor="middle">Notify proposer</text>
<rect x="691.0" y="795.0" width="214" height="50" rx="14" ry="14" fill="#fff" stroke="#000" stroke-width="1.4"/>
<text class="t lab" x="798.0" y="820.0" text-anchor="middle">Notify proposer</text>
<circle cx="498.0" cy="912.0" r="13" fill="#fff" stroke="#000" stroke-width="2"/>
<circle cx="498.0" cy="912.0" r="7" fill="#000"/>
<circle cx="798.0" cy="912.0" r="13" fill="#fff" stroke="#000" stroke-width="2"/>
<circle cx="798.0" cy="912.0" r="7" fill="#000"/>
</svg>