<?xml version="1.0" encoding="UTF-8"?>
<svg xmlns="http://www.w3.org/2000/svg" width="1480" height="780" viewBox="0 0 1480 780">
<style>.t{font-family:'Times New Roman',Times,serif;fill:#000}.title{font-size:20px;font-weight:bold}.sub{font-size:12px}.en{font-size:13px;font-weight:bold}.at{font-size:11px}.pk{font-size:11px;font-weight:bold}.nt{font-size:11px}</style>
<rect width="1480" height="780" fill="#fff"/>
<text class="t title" x="740.0" y="28" text-anchor="middle">Figure ERD-7. Moderation, audit, feedback, and notifications</text>
<text class="t sub" x="740.0" y="50" text-anchor="middle">Users flag content. Admin reviews the queue. Admin cannot moderate another admin.</text>
<polyline points="240.0,238.0 280.0,238.0 280.0,158.0 320.0,158.0" fill="none" stroke="#000" stroke-width="1.15"/>
<line x1="240.0" y1="243.0" x2="240.0" y2="233.0" stroke="#000" stroke-width="1.3"/>
<line x1="310.0" y1="164.0" x2="320" y2="158.0" stroke="#000" stroke-width="1.2"/>
<line x1="310.0" y1="158.0" x2="320" y2="158.0" stroke="#000" stroke-width="1.2"/>
<line x1="310.0" y1="152.0" x2="320" y2="158.0" stroke="#000" stroke-width="1.2"/>
<polyline points="240.0,238.0 280.0,238.0 280.0,442.0 320.0,442.0" fill="none" stroke="#000" stroke-width="1.15"/>
<line x1="240.0" y1="243.0" x2="240.0" y2="233.0" stroke="#000" stroke-width="1.3"/>
<line x1="310.0" y1="448.0" x2="320" y2="442.0" stroke="#000" stroke-width="1.2"/>
<line x1="310.0" y1="442.0" x2="320" y2="442.0" stroke="#000" stroke-width="1.2"/>
<line x1="310.0" y1="436.0" x2="320" y2="442.0" stroke="#000" stroke-width="1.2"/>
<rect x="40" y="200" width="200" height="76" fill="#fff" stroke="#000" stroke-width="1.4"/>
<rect x="40" y="200" width="200" height="26" fill="#fff" stroke="#000" stroke-width="1.4"/>
<text class="t en" x="140.0" y="218" text-anchor="middle">Users</text>
<text class="t pk" x="48" y="242" style=" text-decoration:underline;">PK  UserID</text>
<text class="t at" x="48" y="258" style="">AccountStatus</text>
<text class="t at" x="48" y="274" style="">Email</text>
<rect x="320" y="80" width="260" height="156" fill="#fff" stroke="#000" stroke-width="1.4"/>
<rect x="320" y="80" width="260" height="26" fill="#fff" stroke="#000" stroke-width="1.4"/>
<text class="t en" x="450.0" y="98" text-anchor="middle">ContentReports</text>
<text class="t pk" x="328" y="122" style=" text-decoration:underline;">PK  ReportID</text>
<text class="t at" x="328" y="138" style="">FK  ReporterID</text>
<text class="t at" x="328" y="154" style="">FK  AssignedAdminID</text>
<text class="t at" x="328" y="170" style="">TargetType</text>
<text class="t at" x="328" y="186" style="">TargetID</text>
<text class="t at" x="328" y="202" style="">Reason</text>
<text class="t at" x="328" y="218" style="">Status</text>
<text class="t at" x="328" y="234" style="">Resolution</text>
<rect x="320" y="380" width="260" height="124" fill="#fff" stroke="#000" stroke-width="1.4"/>
<rect x="320" y="380" width="260" height="26" fill="#fff" stroke="#000" stroke-width="1.4"/>
<text class="t en" x="450.0" y="398" text-anchor="middle">Suspensions</text>
<text class="t pk" x="328" y="422" style=" text-decoration:underline;">PK  SuspensionID</text>
<text class="t at" x="328" y="438" style="">FK  UserID</text>
<text class="t at" x="328" y="454" style="">FK  CreatedBy</text>
<text class="t at" x="328" y="470" style="">StartDate</text>
<text class="t at" x="328" y="486" style="">EndDate</text>
<text class="t at" x="328" y="502" style="">IsActive</text>
<rect x="660" y="380" width="250" height="124" fill="#fff" stroke="#000" stroke-width="1.4"/>
<rect x="660" y="380" width="250" height="26" fill="#fff" stroke="#000" stroke-width="1.4"/>
<text class="t en" x="785.0" y="398" text-anchor="middle">Bans</text>
<text class="t pk" x="668" y="422" style=" text-decoration:underline;">PK  BanID</text>
<text class="t at" x="668" y="438" style="">FK  UserID</text>
<text class="t at" x="668" y="454" style="">FK  BannedBy</text>
<text class="t at" x="668" y="470" style="">Email</text>
<text class="t at" x="668" y="486" style="">InstitutionalID</text>
<text class="t at" x="668" y="502" style="">IsActive</text>
<rect x="660" y="80" width="250" height="124" fill="#fff" stroke="#000" stroke-width="1.4"/>
<rect x="660" y="80" width="250" height="26" fill="#fff" stroke="#000" stroke-width="1.4"/>
<text class="t en" x="785.0" y="98" text-anchor="middle">AuditLogs</text>
<text class="t pk" x="668" y="122" style=" text-decoration:underline;">PK  LogID</text>
<text class="t at" x="668" y="138" style="">FK  UserID</text>
<text class="t at" x="668" y="154" style="">Action</text>
<text class="t at" x="668" y="170" style="">EntityType</text>
<text class="t at" x="668" y="186" style="">EntityID</text>
<text class="t at" x="668" y="202" style="">Timestamp</text>
<rect x="990" y="80" width="230" height="124" fill="#fff" stroke="#000" stroke-width="1.4"/>
<rect x="990" y="80" width="230" height="26" fill="#fff" stroke="#000" stroke-width="1.4"/>
<text class="t en" x="1105.0" y="98" text-anchor="middle">Feedback</text>
<text class="t pk" x="998" y="122" style=" text-decoration:underline;">PK  FeedbackID</text>
<text class="t at" x="998" y="138" style="">FK  UserID</text>
<text class="t at" x="998" y="154" style="">Category</text>
<text class="t at" x="998" y="170" style="">Title</text>
<text class="t at" x="998" y="186" style="">Rating</text>
<text class="t at" x="998" y="202" style="">Status</text>
<rect x="990" y="320" width="250" height="140" fill="#fff" stroke="#000" stroke-width="1.4"/>
<rect x="990" y="320" width="250" height="26" fill="#fff" stroke="#000" stroke-width="1.4"/>
<text class="t en" x="1115.0" y="338" text-anchor="middle">Notifications</text>
<text class="t pk" x="998" y="362" style=" text-decoration:underline;">PK  NotificationID</text>
<text class="t at" x="998" y="378" style="">FK  UserID</text>
<text class="t at" x="998" y="394" style="">Title</text>
<text class="t at" x="998" y="410" style="">NotificationType</text>
<text class="t at" x="998" y="426" style="">RelatedType</text>
<text class="t at" x="998" y="442" style="">RelatedID</text>
<text class="t at" x="998" y="458" style="">IsRead</text>
<rect x="1290" y="80" width="170" height="108" fill="#fff" stroke="#000" stroke-width="1.4"/>
<rect x="1290" y="80" width="170" height="26" fill="#fff" stroke="#000" stroke-width="1.4"/>
<text class="t en" x="1375.0" y="98" text-anchor="middle">Attachments</text>
<text class="t pk" x="1298" y="122" style=" text-decoration:underline;">PK  AttachmentID</text>
<text class="t at" x="1298" y="138" style="">FK  UploadedBy</text>
<text class="t at" x="1298" y="154" style="">FileName</text>
<text class="t at" x="1298" y="170" style="">RelatedType</text>
<text class="t at" x="1298" y="186" style="">RelatedID</text>
</svg>